<?xml version="1.0" encoding="utf-8"?>
<!-- Generator: Adobe Illustrator 24.0.1, SVG Export Plug-In . SVG Version: 6.00 Build 0)  -->
<svg version="1.1" id="Layer_1" xmlns="http://www.w3.org/2000/svg" xmlns:xlink="http://www.w3.org/1999/xlink" x="0px" y="0px"
	 viewBox="0 0 239 239" style="enable-background:new 0 0 239 239;" xml:space="preserve">
<style type="text/css">
	.st0{fill:#BDBFAA;}
	.st1{fill:#0B1840;}
</style>
<g>
	<path class="st0" d="M161.3,37.9c-22.3-0.2-44.6-1.1-66.9-0.5c-25.9,0.6-46,2.2-61.3,22.9c-4,9.9-6,21.4-7,33.4
		c-0.2,3.2-0.4,6.4-0.6,9.8c-0.8,20.4,0.5,41.4,0.1,58.1c2.2,11,6.4,20.8,14.3,28.3C66,214.8,119.2,207,154,205.7
		c16.7-6.1,30.7-11.1,38.1-30.3c5.9-15,4.9-34.2,5.4-50.3C198.3,91.8,199.8,46,161.3,37.9z"/>
	<path class="st1" d="M151.1,49.7c44.5,5.7,31.4,70.2,30.2,101.5c-0.7,17.2-3.8,30.5-21.5,36.4c-23.3,7.8-57.7,5.2-81.5,1.7
		c-15.9-2.3-28.4-7.1-32.8-23.6c-7-26.1-5-61.4-2-88c0.1-0.5,0.2-0.9,0.5-1.2C44.4,36.8,127.9,46.7,151.1,49.7z"/>
	<path class="st0" d="M169.6,73.9c0.1-11-13.6-14.4-20.9-7.7c-2,1.8-2.9,4.6-3,7.7c0.7,3.9,3.1,7.7,6.1,9.9
		C158.8,88.8,169.5,82.2,169.6,73.9z"/>
	<path class="st0" d="M149.3,95.2c-15.7-23.7-51.1-26.1-70.1-5c-13,14.3-13.9,38.2-4.1,55.2c0.6,0.2,1.1,0.5,1.5,1.1
		c15.9,17.7,43.2,24.1,62.8,8.1C156.9,140.2,162,114.5,149.3,95.2z"/>
	<path class="st1" d="M86.8,127.8c5.5,15.6,25.3,28,41,18.3c31.8-19.4-5.5-72.2-31.7-48.8C86.8,102.8,83.2,117.6,86.8,127.8z"/>
</g>
</svg>
